# xmcd
#
# Track frame offsets:
#	150
#	8414
#	21362
#	40115
#
# Disc length: 806 seconds
#
# Revision: 1
# Processed by: cddbd v1.5.2PL0 Copyright (c) Steve Scherf et al.
# Submitted via: audiograbber 1.83.01
#
DISCID=20032404
DTITLE=Trisha Yearwood - Induction Into The Grand Ole Opry
DYEAR=1999
DGENRE=Country
TTITLE0=Intro
TTITLE1=Wrong Side Of Memphis
TTITLE2=She's In Love With The Boy
TTITLE3=I'll Still Love You More
EXTD=
EXTT0=
EXTT1=
EXTT2=
EXTT3=
PLAYORDER=
